<svg xmlns="http://www.w3.org/2000/svg" viewBox="0 0 120 120" fill="none">
  <circle cx="60" cy="60" r="60" fill="#CE93D8"/>
  <circle cx="60" cy="68" r="34" fill="#FDEBD0"/>
  <path d="M28 56 Q18 40 30 30 Q38 42 34 56" fill="#E1BEE7" opacity="0.7"/>
  <path d="M92 56 Q102 40 90 30 Q82 42 86 56" fill="#E1BEE7" opacity="0.7"/>
  <circle cx="46" cy="62" r="4" fill="#6A1B9A"/>
  <circle cx="74" cy="62" r="4" fill="#6A1B9A"/>
  <circle cx="47" cy="61" r="1.5" fill="white"/>
  <circle cx="75" cy="61" r="1.5" fill="white"/>
  <ellipse cx="60" cy="72" rx="3" ry="2" fill="#F48FB1"/>
  <path d="M52 78 Q60 84 68 78" stroke="#6A1B9A" stroke-width="2" fill="none" stroke-linecap="round"/>
  <circle cx="38" cy="68" r="4" fill="#F48FB1" opacity="0.3"/>
  <circle cx="82" cy="68" r="4" fill="#F48FB1" opacity="0.3"/>
  <polygon points="60,32 57,42 63,42" fill="#FFD54F"/>
  <polygon points="60,30 58,36 62,36" fill="#FFF9C4"/>
</svg>
