<svg xmlns="http://www.w3.org/2000/svg" viewBox="0 0 120 120" fill="none">
  <circle cx="60" cy="60" r="60" fill="#E8601A"/>
  <polygon points="25,40 15,5 48,32" fill="#E8601A"/>
  <polygon points="95,40 105,5 72,32" fill="#E8601A"/>
  <polygon points="25,40 20,14 44,32" fill="#FFD4A8"/>
  <polygon points="95,40 100,14 76,32" fill="#FFD4A8"/>
  <circle cx="60" cy="65" r="35" fill="#FFD4A8"/>
  <circle cx="45" cy="55" r="5" fill="#3D2B1F"/>
  <circle cx="75" cy="55" r="5" fill="#3D2B1F"/>
  <circle cx="46" cy="54" r="2" fill="white"/>
  <circle cx="76" cy="54" r="2" fill="white"/>
  <ellipse cx="60" cy="68" rx="5" ry="4" fill="#3D2B1F"/>
  <path d="M50 75 Q60 82 70 75" stroke="#3D2B1F" stroke-width="2" fill="none" stroke-linecap="round"/>
  <path d="M30 55 Q45 65 55 62" stroke="white" stroke-width="3" fill="none" stroke-linecap="round" opacity="0.5"/>
  <path d="M90 55 Q75 65 65 62" stroke="white" stroke-width="3" fill="none" stroke-linecap="round" opacity="0.5"/>
</svg>