<svg xmlns="http://www.w3.org/2000/svg" viewBox="0 0 120 120" fill="none">
  <circle cx="60" cy="60" r="60" fill="#F06292"/>
  <circle cx="60" cy="70" r="33" fill="#FDEBD0"/>
  <path d="M32 58 Q34 42 60 36 Q86 42 88 58" fill="#5D4037"/>
  <path d="M30 58 Q32 46 60 40 Q88 46 90 58 L88 54 Q86 44 60 38 Q34 44 32 54 Z" fill="#FFD54F"/>
  <polygon points="46,42 44,32 48,38" fill="#FFD54F"/>
  <polygon points="60,38 58,26 62,26" fill="#FFD54F"/>
  <polygon points="74,42 72,32 76,38" fill="#FFD54F"/>
  <circle cx="60" cy="28" r="3" fill="#E91E63"/>
  <circle cx="46" cy="35" r="2" fill="#E91E63"/>
  <circle cx="74" cy="35" r="2" fill="#E91E63"/>
  <circle cx="46" cy="64" r="4" fill="#4E342E"/>
  <circle cx="74" cy="64" r="4" fill="#4E342E"/>
  <circle cx="47" cy="63" r="1.5" fill="white"/>
  <circle cx="75" cy="63" r="1.5" fill="white"/>
  <path d="M52 78 Q60 84 68 78" stroke="#880E4F" stroke-width="2" fill="none" stroke-linecap="round"/>
  <circle cx="40" cy="72" r="4" fill="#F48FB1" opacity="0.3"/>
  <circle cx="80" cy="72" r="4" fill="#F48FB1" opacity="0.3"/>
</svg>
