<svg xmlns="http://www.w3.org/2000/svg" viewBox="0 0 120 120" fill="none">
  <circle cx="60" cy="60" r="60" fill="#78909C"/>
  <rect x="30" y="38" width="60" height="52" rx="12" fill="#B0BEC5"/>
  <rect x="36" y="44" width="48" height="40" rx="8" fill="#ECEFF1"/>
  <rect x="42" y="52" width="14" height="10" rx="3" fill="#42A5F5"/>
  <rect x="64" y="52" width="14" height="10" rx="3" fill="#42A5F5"/>
  <circle cx="49" cy="57" r="3" fill="white"/>
  <circle cx="71" cy="57" r="3" fill="white"/>
  <rect x="50" y="70" width="20" height="4" rx="2" fill="#90A4AE"/>
  <rect x="52" y="70" width="4" height="4" rx="1" fill="#42A5F5"/>
  <rect x="58" y="70" width="4" height="4" rx="1" fill="#42A5F5"/>
  <rect x="64" y="70" width="4" height="4" rx="1" fill="#42A5F5"/>
  <rect x="54" y="28" width="12" height="12" rx="3" fill="#B0BEC5"/>
  <circle cx="60" cy="24" r="4" fill="#42A5F5"/>
  <rect x="22" y="54" width="10" height="6" rx="3" fill="#B0BEC5"/>
  <rect x="88" y="54" width="10" height="6" rx="3" fill="#B0BEC5"/>
</svg>
