<svg xmlns="http://www.w3.org/2000/svg" viewBox="0 0 120 120" fill="none">
  <circle cx="60" cy="60" r="60" fill="#E8D4F0"/>
  <polygon points="60,2 54,30 66,30" fill="#FFD700"/>
  <polygon points="60,2 56,22 60,30 64,22" fill="#FFF176"/>
  <circle cx="60" cy="68" r="36" fill="white"/>
  <circle cx="45" cy="60" r="5" fill="#7B5EA7"/>
  <circle cx="75" cy="60" r="5" fill="#7B5EA7"/>
  <circle cx="46" cy="59" r="2" fill="white"/>
  <circle cx="76" cy="59" r="2" fill="white"/>
  <ellipse cx="60" cy="72" rx="4" ry="3" fill="#FFB6C1"/>
  <path d="M50 80 Q60 87 70 80" stroke="#7B5EA7" stroke-width="2" fill="none" stroke-linecap="round"/>
  <circle cx="38" cy="72" rx="5" ry="3" fill="#FFB6C1" opacity="0.4"/>
  <circle cx="82" cy="72" rx="5" ry="3" fill="#FFB6C1" opacity="0.4"/>
  <path d="M80,40 Q90,35 95,42 Q98,48 92,50" stroke="#E8D4F0" stroke-width="5" fill="none" stroke-linecap="round"/>
</svg>